<svg xmlns="http://www.w3.org/2000/svg" width="12.5" height="12.5" viewBox="0 0 12.5 12.5">
  <path id="icon-jump" d="M320.117,945h-8.43A1.687,1.687,0,0,1,310,943.314v-8.43A1.889,1.889,0,0,1,311.714,933h4.714v.857h-4.714a.867.867,0,0,0-.857.857l-.014,8.6a.843.843,0,0,0,.843.843l8.6-.014a.867.867,0,0,0,.857-.857v-4.714H322v4.714A1.889,1.889,0,0,1,320.117,945Zm1.455-8.143a.427.427,0,0,1-.429-.429l-.012-2.048-6.522,6.22a.453.453,0,0,1-.619,0,.4.4,0,0,1,0-.591l6.465-6.167-1.883.014a.429.429,0,0,1,0-.857h2.991a.426.426,0,0,1,.438.418v3.011A.428.428,0,0,1,321.571,936.857Z" transform="translate(-309.75 -932.75)" fill="#8b7f52" stroke="#8b7f53" stroke-width="0.5" fill-rule="evenodd"/>
</svg>
