<svg xmlns="http://www.w3.org/2000/svg" viewBox="0 0 878.66 767.21"><defs><style>.cls-1{fill:#e08c72;}.cls-2{fill:#fff33f;}.cls-3{fill:#2f2725;}</style></defs><g id="レイヤー_2" data-name="レイヤー 2"><g id="レイヤー_1-2" data-name="レイヤー 1"><path class="cls-1" d="M699.12,318.21a11.49,11.49,0,0,1-8-19.77c16.33-15.69,26.48-41.65,26.48-67.77,0-21.06-6.47-52.37-37.31-82-30-28.78-69.68-28.67-90.68-26-31.54,4-57.44,17.67-64.26,28.64a11.48,11.48,0,0,1-19.51-12.12c11.58-18.63,44.85-34.8,80.91-39.32,25.07-3.14,72.61-3.12,109.45,32.26,36.68,35.23,44.38,73.05,44.38,98.57,0,32.64-12.55,64.17-33.55,84.34A11.44,11.44,0,0,1,699.12,318.21Z"/><path class="cls-1" d="M789.21,350.09a11.47,11.47,0,0,1-6.68-2.15L733.6,312.86A11.48,11.48,0,1,1,747,294.19l48.94,35.08a11.49,11.49,0,0,1-6.71,20.82Z"/><path class="cls-1" d="M826.19,243.06c-.23,0-.46,0-.7,0l-66.43-4a11.49,11.49,0,1,1,1.37-22.93l66.43,4a11.48,11.48,0,0,1-.67,22.95Z"/><path class="cls-1" d="M739.1,164.87a11.49,11.49,0,0,1-5.61-21.52l58.1-32.45a11.48,11.48,0,1,1,11.2,20l-58.1,32.46A11.41,11.41,0,0,1,739.1,164.87Z"/><path class="cls-1" d="M687.11,108.19a11.49,11.49,0,0,1-10-17.08L709.5,33a11.49,11.49,0,0,1,20.07,11.19L697.16,102.3A11.51,11.51,0,0,1,687.11,108.19Z"/><path class="cls-1" d="M614.35,88.86A11.51,11.51,0,0,1,603,75.74L612.4,9.86a11.49,11.49,0,1,1,22.74,3.26L625.71,79A11.5,11.5,0,0,1,614.35,88.86Z"/><path class="cls-1" d="M540.75,100.87a11.48,11.48,0,0,1-10-5.76L497.59,37.42A11.49,11.49,0,0,1,517.51,26l33.18,57.69a11.49,11.49,0,0,1-9.94,17.22Z"/><path class="cls-2" d="M865.71,409.76c-14.88.32-30.06-2.15-45.29-6.42,2.75-11.29,5.49-22.58,8.38-33.92,4.26-16.75-21.58-23.86-25.84-7.12-2.75,10.8-5.34,21.55-8,32.3-48.37-19.64-95.57-54.37-132.57-79.87-76.32-52.6-165.35-123.82-200.29-212.79-6.24-15.9-32.16-9-25.84,7.12C471.49,198.69,552.07,266,627.07,322.17c43.58,32.68,102,76.19,161.55,99-22.35,95.26-39.55,189.68-49.35,287.26-198.64-.49-397.26-2.26-595.9-2.81C130.71,599.37,115.14,494,80.94,392.69c46.59-13.43,91.94-36.19,132.9-57.51,70-36.44,151.45-88,184.85-162.84,7-15.63-16.11-29.28-23.14-13.52-30.31,67.94-100.9,111.57-163.25,146.72-41.73,23.54-90.64,48.79-140.15,62.32-3.27-8.8-6.66-17.57-10.24-26.29-6.47-15.76-32.4-8.87-25.84,7.12,3.43,8.35,6.68,16.73,9.82,25.14a239,239,0,0,1-32.95,3.78c-17.22.68-17.29,27.48,0,26.8a262,262,0,0,0,41.93-5.28c33.59,99.22,49.19,202.25,61.68,306.39-21.42,0-42.85-.17-64.28-.18-17.28,0-17.28,26.79,0,26.8,22.48,0,45,.14,67.44.19.37,3.12.73,6.23,1.09,9.35,2,17,28.77,17.15,26.8,0l-1.08-9.28c196.79.57,393.57,2.3,590.36,2.8-.55,6.38-1.22,12.71-1.7,19.12-1.3,17.25,25.5,17.12,26.79,0,.49-6.39,1.16-12.69,1.71-19.05,17.4,0,34.8.14,52.2.15s17.28-26.79,0-26.8c-16.61,0-33.21-.11-49.81-.14,9.6-94.77,26.43-186.49,48.1-279,17.36,4.72,34.66,7.41,51.54,7.05C883,436.19,883,409.39,865.71,409.76Z"/><circle class="cls-3" cx="284.71" cy="441.23" r="38.84"/><circle class="cls-3" cx="567.06" cy="441.23" r="38.84"/><ellipse class="cls-3" cx="433.52" cy="512.26" rx="46.39" ry="26.64"/><path class="cls-3" d="M299.89,560.81s55.37,22.84,149.32,18.27S571.4,560.81,571.4,560.81s-19.33,96.69-135.76,97.47S299.89,560.81,299.89,560.81Z"/></g></g></svg>